<?xml version="1.0" encoding="UTF-8"?>
<svg id="_图层_1" data-name="图层 1" xmlns="http://www.w3.org/2000/svg" viewBox="0 0 15.46 15.47">
  <g id="icon-7">
    <path d="m7.73,0C3.46,0,0,3.46,0,7.73s3.47,7.74,7.73,7.74,7.73-3.47,7.73-7.74S12,0,7.73,0Z" style="fill: #000; stroke-width: 0px;"/>
    <g>
      <g>
        <g>
          <path d="m11.46,11.8c-.12,0-.22-.04-.31-.11-.09-.08-.15-.17-.18-.29-.02-.08-.01-.15.01-.21.02-.08.07-.16.12-.22.12-.14.25-.28.36-.43.09-.12.18-.26.26-.39.09-.16.18-.32.26-.49.06-.13.11-.28.16-.42.04-.11.07-.22.1-.34.03-.1.05-.2.07-.31s.04-.23.05-.35c.01-.07.01-.14.02-.2.01-.16.01-.32.01-.48,0-.09-.01-.19-.02-.28-.01-.12-.03-.24-.05-.36-.02-.11-.04-.21-.07-.32-.03-.12-.08-.24-.11-.36-.05-.16-.11-.32-.19-.48-.07-.14-.15-.29-.23-.43-.06-.11-.13-.21-.2-.31-.06-.09-.13-.18-.21-.26-.08-.1-.18-.19-.25-.29-.05-.06-.08-.14-.09-.22-.02-.07,0-.13.01-.19s.04-.12.07-.18.09-.11.15-.14.12-.04.18-.06c.02-.01.05-.02.08-.01.06.01.12.02.18.04.16.05.25.19.35.3.16.18.3.36.43.56.1.17.21.33.31.5.07.12.12.24.17.37.05.12.1.24.15.36.03.07.05.15.07.23.03.09.05.17.08.26.02.06.03.12.04.17.01.06.03.13.04.19.01.04.01.07.02.11.01.1.03.19.04.29.01.16.03.31.04.47.01.13.01.27.01.4,0,.09-.01.18-.02.27-.01.12-.03.24-.05.36-.01.09-.02.17-.04.26-.01.06-.03.13-.04.19-.01.06-.02.11-.04.17-.02.09-.05.18-.08.27-.02.07-.05.15-.07.22-.03.09-.07.19-.11.28s-.08.19-.13.28c-.06.12-.12.24-.19.36-.09.15-.19.3-.29.45-.09.13-.18.24-.28.36-.08.09-.16.18-.25.27-.06.06-.13.1-.21.12-.04.01-.09.01-.13.02Z" style="fill: #fff; stroke-width: 0px;"/>
          <path d="m10.2,4.78c.19,0,.32.09.44.21.07.08.14.15.2.23.13.16.25.32.34.5.06.12.13.23.18.35.05.11.09.23.14.34.04.12.08.24.11.36.02.07.03.14.04.2.02.15.05.29.06.44.01.1.01.2.01.3v.26c-.01.12-.02.24-.04.35-.01.09-.03.17-.05.26-.02.1-.05.2-.08.29-.04.12-.08.24-.12.36-.04.1-.09.2-.14.3-.08.14-.16.29-.25.43-.07.1-.14.2-.22.3-.08.09-.16.19-.25.27-.07.07-.15.12-.24.13-.06.01-.12.02-.18.01-.15-.03-.28-.1-.36-.24-.04-.07-.06-.14-.07-.21,0-.07.01-.15.03-.22.04-.12.13-.2.22-.29.13-.14.24-.29.34-.46.09-.15.16-.3.23-.46.04-.1.08-.21.1-.31.02-.09.04-.19.06-.28.05-.25.04-.5.03-.75,0-.1-.03-.19-.05-.29-.01-.07-.02-.13-.04-.19-.02-.07-.04-.15-.07-.22-.03-.09-.08-.18-.11-.27-.06-.14-.13-.26-.21-.39-.12-.18-.27-.34-.41-.51-.07-.09-.11-.19-.11-.31,0-.09.01-.17.05-.25.05-.09.12-.16.21-.21.07-.01.14-.03.21-.03Z" style="fill: #fff; stroke-width: 0px;"/>
          <path d="m10.06,7.72c-.01.12-.01.21-.02.31-.02.12-.05.24-.08.36-.05.22-.15.41-.27.6-.11.18-.25.33-.41.47-.07.06-.15.1-.24.11-.07.01-.13.01-.19-.01-.1-.02-.18-.07-.25-.15-.09-.1-.12-.21-.13-.34,0-.17.08-.29.2-.4.12-.11.21-.24.27-.39.04-.09.06-.19.09-.29.03-.11.04-.23.03-.35-.01-.09-.03-.18-.05-.27-.03-.13-.08-.25-.15-.36-.07-.12-.16-.21-.26-.31-.06-.06-.11-.13-.12-.22-.01-.07-.02-.14-.01-.21.01-.1.06-.19.14-.26.06-.06.14-.11.22-.13.05-.01.11-.02.17-.01s.12.02.18.05c.08.04.14.1.21.17.1.1.19.21.27.33.09.14.18.28.23.44.04.11.08.22.1.33.03.11.04.22.05.33.02.09.02.16.02.2Z" style="fill: #fff; stroke-width: 0px;"/>
        </g>
        <g>
          <path d="m4,11.8c.12,0,.22-.04.31-.11.09-.08.15-.17.18-.29.02-.08.01-.15-.01-.21-.02-.08-.07-.16-.12-.22-.12-.14-.25-.28-.36-.43-.09-.12-.18-.26-.26-.39-.09-.16-.18-.32-.26-.49-.06-.13-.11-.28-.16-.42-.04-.11-.07-.22-.1-.34-.03-.1-.05-.2-.07-.31s-.04-.23-.05-.35c-.01-.07-.01-.14-.02-.2-.01-.16-.01-.32-.01-.48,0-.09.01-.19.02-.28.01-.12.03-.24.05-.36.02-.11.04-.21.07-.32.03-.12.08-.24.11-.36.05-.16.11-.32.19-.48.07-.14.15-.29.23-.43.06-.11.13-.21.2-.31.06-.09.13-.18.21-.26.08-.1.18-.19.25-.29.05-.06.08-.14.09-.22.02-.07,0-.13-.01-.19s-.04-.12-.07-.18-.09-.11-.15-.14-.12-.04-.18-.06c-.02-.01-.05-.02-.08-.01-.06.01-.12.02-.18.04-.16.05-.25.19-.35.3-.16.18-.3.36-.43.56-.1.17-.21.33-.31.5-.07.12-.12.24-.17.37-.05.12-.1.24-.15.36-.03.07-.05.15-.07.23-.03.09-.05.17-.08.26-.02.06-.03.12-.04.17-.01.06-.03.13-.04.19-.01.04-.01.07-.02.11-.01.1-.03.19-.04.29-.01.16-.03.31-.04.47-.01.13-.01.27-.01.4,0,.09.01.18.02.27.01.12.03.24.05.36.01.09.02.17.04.26.01.06.03.13.04.19.01.06.02.11.04.17.02.09.05.18.08.27.02.07.05.15.07.22.03.09.07.19.11.28s.08.19.13.28c.06.12.12.24.19.36.09.15.19.3.29.45.09.13.18.24.28.36.08.09.16.18.25.27.06.06.13.1.21.12.04.01.09.01.13.02Z" style="fill: #fff; stroke-width: 0px;"/>
          <path d="m5.27,4.78c-.19,0-.32.09-.44.21-.07.08-.14.15-.2.23-.13.16-.25.32-.34.5-.06.12-.13.23-.18.35-.05.11-.09.23-.14.34-.04.12-.08.24-.11.36-.02.07-.03.14-.04.2-.02.15-.05.29-.06.44-.01.1-.01.2-.01.3v.26c.01.12.02.24.04.35.01.09.03.17.05.26.02.1.05.2.08.29.04.12.08.24.12.36.04.1.09.2.14.3.08.14.16.29.25.43.07.1.14.2.22.3.08.09.16.19.25.27.07.07.15.12.24.13.06.01.12.02.18.01.15-.03.28-.1.36-.24.04-.07.06-.14.07-.21,0-.07-.01-.15-.03-.22-.04-.12-.13-.2-.22-.29-.13-.14-.24-.29-.34-.46-.09-.15-.16-.3-.23-.46-.04-.1-.08-.21-.1-.31-.02-.09-.04-.19-.06-.28-.05-.25-.04-.5-.03-.75,0-.1.03-.19.05-.29.01-.07.02-.13.04-.19.02-.07.04-.15.07-.22.03-.09.08-.18.11-.27.06-.14.13-.26.21-.39.12-.18.27-.34.41-.51.07-.09.11-.19.11-.31,0-.09-.01-.17-.05-.25-.05-.09-.12-.16-.21-.21-.08-.01-.15-.03-.21-.03Z" style="fill: #fff; stroke-width: 0px;"/>
          <path d="m5.4,7.72c.01.12.01.21.02.31.02.12.05.24.08.36.05.22.15.41.27.6.11.18.25.33.41.47.07.06.15.1.24.11.07.01.13.01.19-.01.1-.02.18-.07.25-.15.09-.1.12-.21.13-.34,0-.17-.08-.29-.2-.4-.12-.11-.21-.24-.27-.39-.04-.09-.06-.19-.09-.29-.03-.11-.04-.23-.03-.35.01-.09.03-.18.05-.27.03-.13.08-.25.15-.36.07-.12.16-.21.26-.31.06-.06.11-.13.12-.22.01-.07.02-.14.01-.21-.01-.1-.06-.19-.14-.26-.06-.06-.14-.11-.22-.13-.05-.01-.11-.02-.17-.01s-.12.02-.18.05c-.08.04-.14.1-.21.17-.1.1-.19.21-.27.33-.09.14-.18.28-.23.44-.04.11-.08.22-.1.33-.03.11-.04.22-.05.33-.01.09-.02.16-.02.2Z" style="fill: #fff; stroke-width: 0px;"/>
        </g>
      </g>
      <circle cx="7.73" cy="7.74" r=".65" style="fill: #fff; stroke-width: 0px;"/>
    </g>
  </g>
</svg>