<?xml version="1.0" encoding="UTF-8"?>
<svg id="_图层_1" data-name="图层 1" xmlns="http://www.w3.org/2000/svg" viewBox="0 0 11.54 11.54">
  <g id="icon-2">
    <circle cx="5.77" cy="5.77" r="5.77" style="fill: #000; stroke-width: 0px;"/>
    <g>
      <path d="m3.86,8.66c0,.13-.11.24-.24.24h-.64c-.13,0-.24-.11-.24-.24v-3.54c0-.13.11-.24.24-.24h.64c.13,0,.24.11.24.24v3.54Z" style="fill: #fff; stroke-width: 0px;"/>
      <path d="m3.86,3.62s-.01,0,0,0c-.01.12-.11.23-.24.23h-.64c-.13,0-.23-.1-.24-.23v.01-.02.01c.01-.13.11-.23.24-.23h.64c.13-.01.23.1.24.23v-.02.02Z" style="fill: #fff; stroke-width: 0px;"/>
      <path d="m5.59,8.66c0,.13-.11.24-.24.24h-.64c-.13,0-.24-.11-.24-.24v-4.31c0-.13.11-.24.24-.24h.64c.13,0,.24.11.24.24v4.31Z" style="fill: #fff; stroke-width: 0px;"/>
      <path d="m5.59,2.51h0c-.01.12-.11.23-.24.23h-.64c-.13,0-.23-.1-.24-.23v.01-.01.01c.01-.13.11-.24.24-.24h.64c.13-.01.23.1.24.23v-.01.01Z" style="fill: #fff; stroke-width: 0px;"/>
      <path d="m7.28,8.66c0,.13-.11.24-.24.24h-.64c-.13,0-.24-.11-.24-.24v-3.99c0-.14.11-.24.24-.24h.64c.14,0,.24.11.24.24v3.99Z" style="fill: #fff; stroke-width: 0px;"/>
      <path d="m7.28,3.57c0-.01-.01-.01,0,0-.01.12-.11.22-.24.22h-.64c-.13,0-.23-.1-.24-.23v.01-.02.01c0-.13.11-.24.24-.24h.64c.12,0,.23.11.24.25v-.02.02Z" style="fill: #fff; stroke-width: 0px;"/>
      <path d="m9,8.66c0,.13-.11.24-.24.24h-.64c-.14,0-.24-.11-.24-.24v-3.02c0-.13.11-.24.24-.24h.64c.13,0,.24.11.24.24v3.02Z" style="fill: #fff; stroke-width: 0px;"/>
      <path d="m9,4.05q0-.01,0,0c-.01.12-.11.23-.24.23h-.64c-.13,0-.23-.1-.24-.23v.01-.02.01c.01-.13.11-.24.24-.24h.64c.13-.01.24.1.24.24v-.02.02Z" style="fill: #fff; stroke-width: 0px;"/>
    </g>
  </g>
</svg>