<?xml version="1.0" encoding="UTF-8"?>
<svg id="_图层_1" data-name="图层 1" xmlns="http://www.w3.org/2000/svg" viewBox="0 0 21.05 21.06">
  <g id="icon-4">
    <path d="m10.53,0C4.72,0,0,4.71,0,10.52s4.72,10.54,10.53,10.54,10.52-4.72,10.52-10.54S16.34,0,10.53,0Z" style="fill: #000; stroke-width: 0px;"/>
    <g>
      <g>
        <path d="m9.51,12.32c-.65-1.85-1.68-3.5-2.66-5.31-.76,1.49-1.51,2.91-2.22,4.34-.38.78-.65,1.61-.76,2.49-.21,1.64.98,3.19,2.59,3.38,1.76.2,3.26-.98,3.42-2.69.08-.78-.12-1.5-.37-2.21Z" style="fill: #fff; stroke-width: 0px;"/>
        <path d="m7.59,15.97c-1.33,0-2.44-.94-2.7-2.18-.04.15-.06.31-.06.48,0,1.09.89,1.98,1.98,1.98.38,0,.72-.11,1.02-.29-.09-.01-.16.01-.24.01Z" style="fill: #000; stroke-width: 0px;"/>
      </g>
      <g>
        <path d="m17.24,12.65c-.51-1.46-1.32-2.76-2.09-4.18-.6,1.17-1.19,2.29-1.75,3.42-.3.62-.51,1.27-.6,1.96-.17,1.29.77,2.51,2.04,2.66,1.38.16,2.57-.77,2.69-2.12.06-.62-.09-1.18-.29-1.74Z" style="fill: #fff; stroke-width: 0px;"/>
        <path d="m15.73,15.54c-.97,0-1.78-.68-1.97-1.59-.03.11-.05.23-.05.35,0,.8.65,1.44,1.44,1.44.27,0,.53-.08.74-.21-.05,0-.1.01-.16.01Z" style="fill: #000; stroke-width: 0px;"/>
      </g>
      <g>
        <path d="m12.28,5.69c-.39-1.13-1.02-2.13-1.62-3.23-.47.91-.92,1.77-1.35,2.64-.23.48-.39.98-.46,1.51-.13,1,.59,1.94,1.58,2.06,1.07.12,1.98-.6,2.08-1.64.04-.46-.08-.9-.23-1.34Z" style="fill: #fff; stroke-width: 0px;"/>
        <path d="m11.25,7.77c-.84,0-1.54-.59-1.71-1.38-.02.1-.04.2-.04.3,0,.69.56,1.25,1.25,1.25.24,0,.46-.07.65-.18-.06,0-.1.01-.15.01Z" style="fill: #000; stroke-width: 0px;"/>
      </g>
    </g>
  </g>
</svg>