<?xml version="1.0" encoding="UTF-8"?>
<svg width="54px" height="54px" viewBox="0 0 54 54" version="1.1" xmlns="http://www.w3.org/2000/svg" xmlns:xlink="http://www.w3.org/1999/xlink">
    <title>未选中</title>
    <g id="商品详情页" stroke="none" stroke-width="1" fill="none" fill-rule="evenodd">
        <g id="切图" transform="translate(-153.000000, -777.000000)" stroke="#FFD62A">
            <g id="编组-70" transform="translate(67.000000, 777.000000)">
                <g id="选中" transform="translate(86.000000, -0.001310)">
                    <g id="编组-68" transform="translate(0.000000, 0.001310)">
                        <rect id="矩形" x="0.5" y="0.5" width="53" height="53" rx="8"></rect>
                        <path d="M27.500999,18.5 C27.6487431,18.5 27.7965971,18.5414194 27.9250913,18.6248469 L29.8365902,22.3810963 C30.100962,22.9380519 30.6131877,23.3204601 31.2015553,23.4093683 L34.7999043,23.9539146 C34.9582691,23.9779305 35.0940912,24.044353 35.2019311,24.1391852 C35.3231087,24.2457462 35.4093149,24.3865929 35.4570384,24.5399265 C35.5057794,24.6965293 35.5145971,24.8669281 35.475792,25.0307189 C35.4404559,25.1798672 35.3649248,25.3230318 35.2453501,25.4446632 L32.6406723,28.0930483 C32.2210966,28.5198921 32.0272073,29.1349514 32.1268698,29.7368844 L32.7417038,33.4762775 C32.770333,33.6507413 32.751288,33.815517 32.6949104,33.9601674 C32.6354771,34.1126579 32.5353724,34.2424043 32.4107125,34.3369353 C32.2907398,34.427912 32.1476177,34.4865147 31.9959347,34.4979522 C31.8565933,34.5084591 31.7110869,34.4780648 31.5708891,34.401133 L28.3514156,32.6361696 C27.8184201,32.3439833 27.1816874,32.3439758 26.6486393,32.636173 L23.4290094,34.4012222 C23.2889671,34.478063 23.1434413,34.5084596 23.0040826,34.4979521 C22.8523873,34.4865145 22.7092544,34.4279116 22.5892737,34.3369323 C22.464611,34.2424027 22.3645047,34.1126583 22.3050718,33.9601696 C22.248695,33.8155216 22.2296523,33.6507486 22.258261,33.4764324 L22.8730166,29.7375131 C22.9728694,29.1350101 22.7789147,28.5199135 22.3590891,28.0928156 L19.7546887,25.446757 C19.6350496,25.3250602 19.5595268,25.1819054 19.5241984,25.0327669 C19.4854,24.8689799 19.4942273,24.6985851 19.5429753,24.5419853 C19.5907094,24.3886423 19.67693,24.2477873 19.7981207,24.1412194 C19.9059725,24.0463808 20.0418059,23.9799523 20.2000298,23.9559578 L23.7982998,23.4114056 C24.3868543,23.322474 24.8992064,22.9399906 25.1635565,22.3827369 L26.7763606,18.9776339 C26.8491797,18.8236062 26.9535011,18.7049533 27.0768761,18.6248544 C27.2053837,18.5414232 27.3532478,18.5 27.500999,18.5 Z" id="Fill-1"></path>
                    </g>
                </g>
            </g>
        </g>
    </g>
</svg>